<?xml version="1.0" encoding="UTF-8"?>
<svg width="203px" height="205px" viewBox="0 0 203 205" version="1.1" xmlns="http://www.w3.org/2000/svg" xmlns:xlink="http://www.w3.org/1999/xlink">
    <!-- Generator: Sketch 40.3 (33839) - http://www.bohemiancoding.com/sketch -->
    <title>clear-night</title>
    <desc>Created with Sketch.</desc>
    <defs></defs>
    <g id="Symbols" stroke="none" stroke-width="1" fill="none" fill-rule="evenodd">
        <g id="clear-night" transform="translate(0.000000, 1.000000)" stroke="#979797">
            <g>
                <path d="M57.8321812,202.680181 C114.436774,202.680181 160.323864,157.308677 160.323864,101.34009 C160.323864,45.371504 114.436774,0 57.8321812,0 C1.22758804,0 100.346591,0 100.346591,101.34009 C100.346591,202.680181 1.22758804,202.680181 57.8321812,202.680181 Z" id="Oval" fill="#50E3C2"></path>
                <polygon id="Star" fill="#D8D8D8" points="189.159091 20.5280899 181.023609 24.757109 182.577348 15.7999028 175.995604 9.45637417 185.09135 8.1495354 189.159091 0 193.226832 8.1495354 202.322578 9.45637417 195.740834 15.7999028 197.294573 24.757109"></polygon>
                <polygon id="Star-Copy-2" fill="#D8D8D8" points="189.159091 168.786517 181.023609 173.015536 182.577348 164.05833 175.995604 157.714801 185.09135 156.407962 189.159091 148.258427 193.226832 156.407962 202.322578 157.714801 195.740834 164.05833 197.294573 173.015536"></polygon>
                <polygon id="Star-Copy-3" fill="#D8D8D8" points="189.159091 168.786517 181.023609 173.015536 182.577348 164.05833 175.995604 157.714801 185.09135 156.407962 189.159091 148.258427 193.226832 156.407962 202.322578 157.714801 195.740834 164.05833 197.294573 173.015536"></polygon>
                <polygon id="Star-Copy-4" fill="#D8D8D8" points="54.2102273 122.02809 46.074745 126.257109 47.6284839 117.299903 41.0467405 110.956374 50.1424862 109.649535 54.2102273 101.5 58.2779684 109.649535 67.3737141 110.956374 60.7919707 117.299903 62.3457095 126.257109"></polygon>
                <polygon id="Star-Copy-7" fill="#D8D8D8" points="26.5284091 39.9157303 18.3929268 44.1447494 19.9466657 35.1875433 13.3649223 28.8440146 22.460668 27.5371758 26.5284091 19.3876404 30.5961502 27.5371758 39.6918959 28.8440146 33.1101525 35.1875433 34.6638913 44.1447494"></polygon>
                <polygon id="Star-Copy-8" fill="#D8D8D8" points="161.477273 122.02809 153.34179 126.257109 154.895529 117.299903 148.313786 110.956374 157.409532 109.649535 161.477273 101.5 165.545014 109.649535 174.64076 110.956374 168.059016 117.299903 169.612755 126.257109"></polygon>
                <polygon id="Star-Copy" fill="#D8D8D8" points="13.8409091 155.101124 5.70542685 159.330143 7.2591657 150.372937 0.677422309 144.029408 9.77316797 142.722569 13.8409091 134.573034 17.9086502 142.722569 27.0043959 144.029408 20.4226525 150.372937 21.9763913 159.330143"></polygon>
            </g>
        </g>
    </g>
</svg>