<?xml version="1.0" encoding="UTF-8"?>
<svg width="220px" height="209px" viewBox="0 0 220 209" version="1.1" xmlns="http://www.w3.org/2000/svg" xmlns:xlink="http://www.w3.org/1999/xlink">
    <!-- Generator: Sketch 40.3 (33839) - http://www.bohemiancoding.com/sketch -->
    <title>rainy</title>
    <desc>Created with Sketch.</desc>
    <defs>
        <path d="M154.080164,25.0205856 C145.758839,10.0950696 129.815061,0 111.513453,0 C91.9185968,0 75.0265669,11.5721748 67.2987509,28.2551369 C61.5686741,25.8858173 55.2879069,24.5784753 48.7017937,24.5784753 C21.8045358,24.5784753 0,46.3830111 0,73.2802691 C0,100.177527 21.8045358,121.982063 48.7017937,121.982063 C58.2152902,121.982063 84.6858876,122.730929 109.211373,121.379129 C129.691118,122.605085 152.06981,121.982063 160.670404,121.982063 C187.567662,121.982063 209.372197,100.177527 209.372197,73.2802691 C209.372197,46.3830111 187.567662,24.5784753 160.670404,24.5784753 C158.435294,24.5784753 156.235351,24.7290419 154.080164,25.0205856 Z" id="path-1"></path>
        <mask id="mask-2" maskContentUnits="userSpaceOnUse" maskUnits="objectBoundingBox" x="-5" y="-5" width="219.372197" height="132.188946">
            <rect x="-5" y="-5" width="219.372197" height="132.188946" fill="white"></rect>
            <use xlink:href="#path-1" fill="black"></use>
        </mask>
    </defs>
    <g id="Symbols" stroke="none" stroke-width="1" fill="none" fill-rule="evenodd">
        <g id="rainy" transform="translate(5.000000, 5.000000)">
            <g>
                <use id="Combined-Shape-Copy" stroke="#50E3C2" mask="url(#mask-2)" stroke-width="10" xlink:href="#path-1"></use>
                <path d="M80.1076233,182.973094 C82.1186333,182.973094 83.7488789,181.464319 83.7488789,179.603151 C83.7488789,177.741983 81.1271749,172.458873 80.1076233,172.998064 C79.0880717,173.537255 76.4663677,177.741983 76.4663677,179.603151 C76.4663677,181.464319 78.0966134,182.973094 80.1076233,182.973094 Z" id="Oval-2" stroke="#979797" stroke-width="0.5" fill="#4990E2"></path>
                <path d="M56.4394619,141.098655 C58.4504718,141.098655 60.0807175,139.58988 60.0807175,137.728712 C60.0807175,135.867544 57.4590135,130.584433 56.4394619,131.123624 C55.4199103,131.662815 52.7982063,135.867544 52.7982063,137.728712 C52.7982063,139.58988 54.4284519,141.098655 56.4394619,141.098655 Z" id="Oval-2-Copy" stroke="#979797" stroke-width="0.5" fill="#4990E2"></path>
                <path d="M49.1569507,192.986547 C51.1679606,192.986547 52.7982063,191.477772 52.7982063,189.616604 C52.7982063,187.755436 50.1765022,182.472326 49.1569507,183.011517 C48.1373991,183.550707 45.5156951,187.755436 45.5156951,189.616604 C45.5156951,191.477772 47.1459407,192.986547 49.1569507,192.986547 Z" id="Oval-2-Copy-2" stroke="#979797" stroke-width="0.5" fill="#4990E2"></path>
                <path d="M148.381166,203 C150.392176,203 152.022422,201.491225 152.022422,199.630057 C152.022422,197.768889 149.400717,192.485779 148.381166,193.024969 C147.361614,193.56416 144.73991,197.768889 144.73991,199.630057 C144.73991,201.491225 146.370156,203 148.381166,203 Z" id="Oval-2-Copy-3" stroke="#979797" stroke-width="0.5" fill="#4990E2"></path>
                <path d="M124.713004,178.421525 C126.724014,178.421525 128.35426,176.91275 128.35426,175.051582 C128.35426,173.190414 125.732556,167.907303 124.713004,168.446494 C123.693453,168.985685 121.071749,173.190414 121.071749,175.051582 C121.071749,176.91275 122.701995,178.421525 124.713004,178.421525 Z" id="Oval-2-Copy-4" stroke="#979797" stroke-width="0.5" fill="#4990E2"></path>
                <path d="M104.686099,151.112108 C106.697109,151.112108 108.327354,149.603333 108.327354,147.742165 C108.327354,145.880997 105.70565,140.597886 104.686099,141.137077 C103.666547,141.676268 101.044843,145.880997 101.044843,147.742165 C101.044843,149.603333 102.675089,151.112108 104.686099,151.112108 Z" id="Oval-2-Copy-5" stroke="#979797" stroke-width="0.5" fill="#4990E2"></path>
                <path d="M155.663677,146.560538 C157.674687,146.560538 159.304933,145.051763 159.304933,143.190595 C159.304933,141.329427 156.683229,136.046317 155.663677,136.585508 C154.644126,137.124698 152.022422,141.329427 152.022422,143.190595 C152.022422,145.051763 153.652667,146.560538 155.663677,146.560538 Z" id="Oval-2-Copy-6" stroke="#979797" stroke-width="0.5" fill="#4990E2"></path>
            </g>
        </g>
    </g>
</svg>