<?xml version="1.0" encoding="UTF-8"?>
<svg width="289px" height="179px" viewBox="0 0 289 179" version="1.1" xmlns="http://www.w3.org/2000/svg" xmlns:xlink="http://www.w3.org/1999/xlink">
    <!-- Generator: Sketch 40.3 (33839) - http://www.bohemiancoding.com/sketch -->
    <title>cloudy</title>
    <desc>Created with Sketch.</desc>
    <defs>
        <path d="M228.123182,29.1512747 C222.121811,17.7269755 210.6231,10 197.423913,10 C183.292031,10 171.109436,18.8575825 165.536107,31.6270674 C161.403555,29.8135411 156.873842,28.8128744 152.123913,28.8128744 C132.725512,28.8128744 117,45.502518 117,66.0902366 C117,86.6779553 132.725512,103.367599 152.123913,103.367599 C158.985082,103.367599 178.075774,103.940796 195.763644,102.906101 C210.533712,103.844473 226.673307,103.367599 232.876087,103.367599 C252.274488,103.367599 268,86.6779553 268,66.0902366 C268,45.502518 252.274488,28.8128744 232.876087,28.8128744 C231.264117,28.8128744 229.67751,28.9281212 228.123182,29.1512747 Z" id="path-1"></path>
        <mask id="mask-2" maskContentUnits="userSpaceOnUse" maskUnits="objectBoundingBox" x="-6" y="-6" width="163" height="105.525952">
            <rect x="111" y="4" width="163" height="105.525952" fill="white"></rect>
            <use xlink:href="#path-1" fill="black"></use>
        </mask>
        <path d="M132.123182,57.1512747 C126.121811,45.7269755 114.6231,38 101.423913,38 C87.2920306,38 75.1094364,46.8575825 69.5361071,59.6270674 C65.4035545,57.8135411 60.8738422,56.8128744 56.123913,56.8128744 C36.7255115,56.8128744 21,73.502518 21,94.0902366 C21,114.677955 36.7255115,131.367599 56.123913,131.367599 C62.9850818,131.367599 82.0757741,131.940796 99.7636442,130.906101 C114.533712,131.844473 130.673307,131.367599 136.876087,131.367599 C156.274488,131.367599 172,114.677955 172,94.0902366 C172,73.502518 156.274488,56.8128744 136.876087,56.8128744 C135.264117,56.8128744 133.67751,56.9281212 132.123182,57.1512747 Z" id="path-3"></path>
        <mask id="mask-4" maskContentUnits="userSpaceOnUse" maskUnits="objectBoundingBox" x="-6" y="-6" width="163" height="105.525952">
            <rect x="15" y="32" width="163" height="105.525952" fill="white"></rect>
            <use xlink:href="#path-3" fill="black"></use>
        </mask>
    </defs>
    <g id="Symbols" stroke="none" stroke-width="1" fill="none" fill-rule="evenodd">
        <g id="cloudy">
            <g id="cloudy-copy-2">
                <use fill="#50E3C2" fill-rule="evenodd" xlink:href="#path-1"></use>
                <use stroke="#D8D8D8" mask="url(#mask-2)" stroke-width="12" xlink:href="#path-1"></use>
            </g>
            <g>
                <use fill="#D8D8D8" fill-rule="evenodd" xlink:href="#path-3"></use>
                <use stroke="#50E3C2" mask="url(#mask-4)" stroke-width="12" xlink:href="#path-3"></use>
            </g>
            <path d="M143.521197,104 L123.521197,138.5 L139.021197,138.5 C139.021197,138.5 91.7652806,178.281118 91.021197,181 C90.0389399,184.589168 123.521197,142.608847 123.521197,142.608847 L107.021197,142.608847 L143.521197,104 Z" id="Polygon" fill="#85B0E1"></path>
            <path d="M90.521197,104 L70.521197,138.5 L86.021197,138.5 C86.021197,138.5 38.7652806,178.281118 38.021197,181 C37.0389399,184.589168 70.521197,142.608847 70.521197,142.608847 L54.021197,142.608847 L90.521197,104 Z" id="Polygon-Copy" fill="#85B0E1"></path>
            <path d="M245.521197,93 L225.521197,127.5 L241.021197,127.5 C241.021197,127.5 193.765281,167.281118 193.021197,170 C192.03894,173.589168 225.521197,131.608847 225.521197,131.608847 L209.021197,131.608847 L245.521197,93 Z" id="Polygon-Copy-2" fill="#85B0E1"></path>
            <path d="M198.521197,93 L178.521197,127.5 L194.021197,127.5 C194.021197,127.5 146.765281,167.281118 146.021197,170 C145.03894,173.589168 178.521197,131.608847 178.521197,131.608847 L162.021197,131.608847 L198.521197,93 Z" id="Polygon-Copy-3" fill="#85B0E1"></path>
        </g>
    </g>
</svg>